<svg xmlns="http://www.w3.org/2000/svg" xmlns:xlink="http://www.w3.org/1999/xlink" viewBox="0 0 413.74 449.5"><defs><style>.cls-1{fill:url(#linear-gradient);}.cls-2{fill:url(#linear-gradient-2);}.cls-3{fill:url(#linear-gradient-3);}.cls-4{fill:url(#linear-gradient-4);}</style><linearGradient id="linear-gradient" x1="320.34" y1="31.03" x2="66.85" y2="356.51" gradientUnits="userSpaceOnUse"><stop offset="0" stop-color="#108f87"/><stop offset="1" stop-color="#30ac71"/></linearGradient><linearGradient id="linear-gradient-2" x1="249.81" y1="188.44" x2="250.48" y2="47.11" gradientUnits="userSpaceOnUse"><stop offset="0" stop-color="#fff" stop-opacity="0.3"/><stop offset="1" stop-color="#fff" stop-opacity="0"/></linearGradient><linearGradient id="linear-gradient-3" x1="300.44" y1="15.53" x2="46.95" y2="341.01" xlink:href="#linear-gradient"/><linearGradient id="linear-gradient-4" x1="227.25" y1="391.1" x2="28.25" y2="166.1" xlink:href="#linear-gradient-2"/></defs><title>1a33Asset 11</title><g id="Layer_2" data-name="Layer 2"><g id="Layer_1-2" data-name="Layer 1"><path class="cls-1" d="M400.25,52.3c-13.16-8.78-28.55-16.38-45-22.87C304.22,9.29,243,0,206.87,0,177.31,0,131,6.22,87.19,19.5V29.72a516.7,516.7,0,0,0,2.39,52.77c40.13-14.31,88.31-21.8,117.3-21.8,36.24,0,102.48,11.69,145.47,33.8-2.51,32.34-12,78.43-32.67,126.7C297.78,272.34,266.85,317.45,229,354c9.77,8,26.09,20.6,43.33,30.09l8.14,4.48c103.9-106.18,133.27-244.68,133.27-311V61.31Z"/><path class="cls-2" d="M398.08,55.56C385.87,47.41,371,39.84,353.83,33.07,303,13,242.05,3.92,206.87,3.92c-24.77,0-69.66,4.86-115.76,18.49v7.31q0,3.38,0,6.67c39.05-9.69,75.25-13.29,96.56-13.29,35.18,0,96.17,9.12,147,29.16C351.8,59,366.69,66.59,378.9,74.74l11.74,7.85V96.72c0,60-24.21,183.47-112.08,286.31l1.19.65C382.36,277.38,409.83,141.45,409.83,77.54V63.41Z"/><path class="cls-3" d="M94.07,221.19C73.41,172.92,63.91,126.83,61.4,94.49,58.78,74.38,57.8,51.7,57.82,29.7,41.63,36.12,26.47,43.63,13.49,52.3L0,61.31V77.54c0,77,39.52,251,189.1,359.12l17.77,12.84,17.77-12.84q17.79-12.86,33.53-26.87c-20.58-11.32-40-26.49-51.3-36C158.85,334.32,120.1,282,94.07,221.19Z"/><path class="cls-4" d="M212.84,428.42C57.92,316.49,17,136.25,17,56.57V54.7l-1.33.86L3.92,63.41V77.54c0,76.26,39.18,248.81,187.47,355.94l15.48,11.19,14.23-10.29Z"/></g></g></svg>